<svg width="131" height="32" viewBox="0 0 131 32" fill="none" xmlns="http://www.w3.org/2000/svg">
<path fill-rule="evenodd" clip-rule="evenodd" d="M16 2.66666H4V11.5555V20.4445H16V29.3333H28V20.4445V11.5555H16V2.66666Z" fill="#1313EC"/>
<path d="M45.5385 23.1953C44.0274 23.1953 42.8366 22.8001 41.966 22.0098C41.0954 21.2194 40.6601 20.0924 40.6601 18.6289V17.7791H43.6442V18.6711C43.6442 19.3666 43.8141 19.8936 44.1538 20.2518C44.4935 20.6101 44.955 20.7892 45.5385 20.7892C46.1189 20.7892 46.5773 20.6101 46.9135 20.2518C47.2497 19.8936 47.4177 19.3631 47.4177 18.6605V8.44922H50.3702V18.6183C50.3702 20.0854 49.94 21.215 49.0797 22.0071C48.2194 22.7992 47.039 23.1953 45.5385 23.1953ZM57.3234 23.2133C56.2284 23.2133 55.2809 22.978 54.481 22.5075C53.681 22.037 53.0648 21.3795 52.6323 20.5349C52.1998 19.6903 51.9836 18.7081 51.9836 17.5883C51.9836 16.4595 52.1998 15.4721 52.6323 14.626C53.0648 13.7799 53.681 13.1216 54.481 12.6511C55.2809 12.1806 56.2284 11.9453 57.3234 11.9453C58.4215 11.9453 59.3695 12.1806 60.1674 12.6511C60.9653 13.1216 61.5805 13.7799 62.013 14.626C62.4455 15.4721 62.6618 16.4595 62.6618 17.5883C62.6618 18.7081 62.4455 19.6903 62.013 20.5349C61.5805 21.3795 60.9653 22.037 60.1674 22.5075C59.3695 22.978 58.4215 23.2133 57.3234 23.2133ZM57.3234 20.908C57.8447 20.908 58.2805 20.7631 58.6309 20.4734C58.9814 20.1837 59.2442 19.7875 59.4193 19.2847C59.5944 18.782 59.682 18.213 59.682 17.5777C59.682 16.9359 59.5944 16.3648 59.4193 15.8644C59.2442 15.3639 58.9814 14.9699 58.6309 14.6822C58.2805 14.3945 57.8447 14.2506 57.3234 14.2506C56.8017 14.2506 56.3662 14.3945 56.017 14.6822C55.6678 14.9699 55.4057 15.3632 55.2305 15.8621C55.0554 16.3611 54.9678 16.9329 54.9678 17.5777C54.9678 18.213 55.0554 18.782 55.2305 19.2847C55.4057 19.7875 55.6678 20.1837 56.017 20.4734C56.3662 20.7631 56.8017 20.908 57.3234 20.908ZM70.3206 23.1816C69.7289 23.1816 69.2276 23.0813 68.8168 22.8806C68.4059 22.6799 68.0725 22.4316 67.8165 22.1359C67.5605 21.8402 67.3636 21.5458 67.2258 21.2525H67.0833V23H64.2027V8.44922H67.1313V13.9197H67.2258C67.3601 13.6295 67.552 13.3319 67.8014 13.0269C68.0509 12.7218 68.3813 12.4653 68.7927 12.2573C69.2041 12.0493 69.7189 11.9453 70.3372 11.9453C71.1467 11.9453 71.8858 12.1538 72.5545 12.5709C73.2233 12.9879 73.759 13.6128 74.1617 14.4453C74.5643 15.2779 74.7657 16.316 74.7657 17.5598C74.7657 18.7714 74.5704 19.7951 74.1797 20.6309C73.7891 21.4667 73.2585 22.1008 72.588 22.5331C71.9175 22.9655 71.1617 23.1816 70.3206 23.1816ZM69.4188 20.8341C69.9301 20.8341 70.359 20.6941 70.7054 20.4142C71.0519 20.1343 71.3144 19.7467 71.4927 19.2515C71.6711 18.7564 71.7603 18.1894 71.7603 17.5508C71.7603 16.9116 71.6719 16.3474 71.495 15.8582C71.3181 15.369 71.0564 14.9858 70.7099 14.7086C70.3635 14.4314 69.9331 14.2928 69.4188 14.2928C68.9169 14.2928 68.4909 14.4269 68.1407 14.6952C67.7904 14.9634 67.5243 15.3406 67.3424 15.8268C67.1605 16.313 67.0696 16.8876 67.0696 17.5508C67.0696 18.2069 67.1613 18.7809 67.3447 19.2728C67.5281 19.7647 67.7957 20.1479 68.1474 20.4224C68.4992 20.6969 68.9229 20.8341 69.4188 20.8341ZM76.3773 23V8.44922H82.0539C83.1586 8.44922 84.0983 8.65944 84.8729 9.07988C85.6475 9.50033 86.2386 10.08 86.6461 10.8188C87.0537 11.5576 87.2575 12.4056 87.2575 13.3629C87.2575 14.3237 87.051 15.1706 86.6382 15.9036C86.2254 16.6367 85.6263 17.2106 84.8408 17.6255C84.0554 18.0404 83.1033 18.2479 81.9846 18.2479H78.3379V15.8418H81.5117C82.1182 15.8418 82.6189 15.7363 83.0138 15.5254C83.4087 15.3144 83.7023 15.0226 83.8946 14.6497C84.0868 14.2769 84.183 13.8479 84.183 13.3629C84.183 12.8709 84.0868 12.4408 83.8946 12.0727C83.7023 11.7046 83.408 11.4185 83.0116 11.2143C82.6152 11.0101 82.1122 10.9081 81.5027 10.9081H79.3614V23H76.3773ZM93.4895 23.2133C92.3944 23.2133 91.4469 22.978 90.647 22.5075C89.847 22.037 89.2308 21.3795 88.7983 20.5349C88.3658 19.6903 88.1496 18.7081 88.1496 17.5883C88.1496 16.4595 88.3658 15.4721 88.7983 14.626C89.2308 13.7799 89.847 13.1216 90.647 12.6511C91.4469 12.1806 92.3944 11.9453 93.4895 11.9453C94.5875 11.9453 95.5355 12.1806 96.3334 12.6511C97.1313 13.1216 97.7465 13.7799 98.179 14.626C98.6115 15.4721 98.8278 16.4595 98.8278 17.5883C98.8278 18.7081 98.6115 19.6903 98.179 20.5349C97.7465 21.3795 97.1313 22.037 96.3334 22.5075C95.5355 22.978 94.5875 23.2133 93.4895 23.2133ZM93.4895 20.908C94.0107 20.908 94.4465 20.7631 94.7969 20.4734C95.1474 20.1837 95.4102 19.7875 95.5853 19.2847C95.7604 18.782 95.848 18.213 95.848 17.5777C95.848 16.9359 95.7604 16.3648 95.5853 15.8644C95.4102 15.3639 95.1474 14.9699 94.7969 14.6822C94.4465 14.3945 94.0107 14.2506 93.4895 14.2506C92.9677 14.2506 92.5323 14.3945 92.1831 14.6822C91.8338 14.9699 91.5717 15.3632 91.3965 15.8621C91.2214 16.3611 91.1339 16.9329 91.1339 17.5777C91.1339 18.213 91.2214 18.782 91.3965 19.2847C91.5717 19.7875 91.8338 20.1837 92.1831 20.4734C92.5323 20.7631 92.9677 20.908 93.4895 20.908ZM100.369 23V12.082H103.207V13.9832H103.324C103.523 13.3103 103.858 12.8009 104.33 12.4551C104.801 12.1092 105.344 11.9363 105.956 11.9363C106.107 11.9363 106.27 11.9449 106.444 11.9619C106.617 11.979 106.77 12.0031 106.903 12.0342V14.6508C106.773 14.6062 106.584 14.57 106.335 14.5422C106.087 14.5144 105.854 14.5005 105.637 14.5005C105.19 14.5005 104.789 14.5972 104.433 14.7907C104.078 14.9842 103.8 15.252 103.599 15.5942C103.398 15.9364 103.297 16.3338 103.297 16.7864V23H100.369ZM113.829 12.082V14.3137H107.352V12.082H113.829ZM108.855 9.48438H111.784V19.8041C111.784 20.1517 111.861 20.408 112.016 20.5728C112.17 20.7376 112.424 20.8201 112.777 20.8201C112.892 20.8201 113.049 20.8062 113.25 20.7784C113.45 20.7506 113.603 20.7236 113.707 20.6976L114.127 22.8939C113.8 22.9907 113.477 23.058 113.156 23.0958C112.835 23.1336 112.527 23.1525 112.233 23.1525C111.138 23.1525 110.301 22.8868 109.723 22.3554C109.144 21.8239 108.855 21.0595 108.855 20.0621V9.48438ZM118.377 23.2117C117.684 23.2117 117.062 23.0894 116.513 22.8448C115.964 22.6002 115.532 22.2361 115.218 21.7523C114.903 21.2686 114.746 20.6669 114.746 19.9473C114.746 19.3363 114.857 18.8268 115.08 18.4186C115.303 18.0104 115.608 17.6816 115.995 17.4324C116.382 17.1832 116.822 16.9936 117.314 16.8636C117.807 16.7336 118.323 16.643 118.862 16.592C119.492 16.5284 120.001 16.4686 120.388 16.4125C120.775 16.3564 121.06 16.2686 121.241 16.1491C121.422 16.0296 121.512 15.8523 121.512 15.617V15.5689C121.512 15.2574 121.446 14.9938 121.314 14.7782C121.181 14.5627 120.988 14.3975 120.734 14.2828C120.48 14.168 120.167 14.1106 119.796 14.1106C119.423 14.1106 119.097 14.1674 118.817 14.2809C118.538 14.3944 118.309 14.546 118.13 14.7357C117.952 14.9253 117.823 15.1383 117.745 15.3746L115.059 14.9287C115.244 14.2928 115.554 13.7534 115.991 13.3105C116.428 12.8676 116.97 12.5293 117.619 12.2957C118.267 12.0621 118.996 11.9453 119.806 11.9453C120.392 11.9453 120.961 12.0147 121.515 12.1536C122.068 12.2925 122.565 12.5097 123.005 12.8053C123.445 13.1009 123.794 13.4831 124.053 13.952C124.311 14.4208 124.441 14.9868 124.441 15.6498V23H121.663V21.484H121.567C121.39 21.8223 121.156 22.1212 120.863 22.3809C120.57 22.6405 120.218 22.8439 119.806 22.991C119.395 23.1381 118.918 23.2117 118.377 23.2117ZM119.202 21.158C119.663 21.158 120.068 21.0662 120.417 20.8826C120.766 20.699 121.04 20.4512 121.237 20.1392C121.434 19.8273 121.533 19.4798 121.533 19.0969V17.9155C121.444 17.9755 121.312 18.0318 121.138 18.0843C120.964 18.1368 120.77 18.1839 120.556 18.2254C120.341 18.2669 120.13 18.303 119.921 18.3335C119.712 18.364 119.527 18.3908 119.364 18.4139C119.004 18.4625 118.688 18.5449 118.415 18.6613C118.142 18.7778 117.93 18.9334 117.779 19.1283C117.628 19.3232 117.553 19.5675 117.553 19.8611C117.553 20.1438 117.624 20.3813 117.766 20.5737C117.909 20.7661 118.104 20.9116 118.351 21.0101C118.598 21.1087 118.882 21.158 119.202 21.158ZM129.366 8.44922V23H126.437V8.44922H129.366Z" fill="#0F172A"/>
</svg>
